<?xml version="1.0" encoding="UTF-8"?>
<svg version="1.1" xmlns="http://www.w3.org/2000/svg" width="512" height="512">
<path d="M0 0 C0.83868118 -0.00428513 1.67736237 -0.00857025 2.54145813 -0.01298523 C4.29854434 -0.01868371 6.05565412 -0.01926224 7.81274414 -0.01489258 C10.49210636 -0.01171421 13.17038167 -0.03531044 15.84960938 -0.06054688 C17.56640487 -0.0628186 19.28320331 -0.06352395 21 -0.0625 C21.79387619 -0.07170975 22.58775238 -0.08091949 23.40568542 -0.09040833 C29.57841527 -0.03923265 33.60541759 1.47131154 38.42578125 5.48828125 C43.50831883 11.50707576 45.52090485 16.66693084 45.1796875 24.625 C44.21028916 31.47075116 40.89927976 35.73868736 35.6796875 40.07421875 C31.21039728 42.99180114 27.32056764 43.55410862 22.03125 43.609375 C20.07928711 43.64708008 20.07928711 43.64708008 18.08789062 43.68554688 C16.04094674 43.71417717 13.99407896 43.73822786 11.94702148 43.75708008 C-0.95047753 43.73816239 -0.95047753 43.73816239 -12.01171875 49.67578125 C-17.22647855 55.93349301 -18.31916429 60.35619956 -18.34106445 68.40161133 C-18.34627609 69.46362259 -18.34627609 69.46362259 -18.35159302 70.54708862 C-18.35893424 72.08302339 -18.36428831 73.61896866 -18.36788368 75.15491676 C-18.37508747 77.60000133 -18.39078804 80.04488961 -18.40922546 82.48991394 C-18.46147464 89.44173293 -18.5095313 96.39344838 -18.52514648 103.34545898 C-18.53533572 107.60377646 -18.56494035 111.86160397 -18.60646629 116.11972618 C-18.61863651 117.72891182 -18.62392364 119.33816715 -18.62166786 120.94739723 C-18.60041049 141.08295583 -23.53252723 158.69427461 -38.09765625 173.44140625 C-44.64652488 179.69742204 -52.36020877 184.6177628 -60.07421875 189.30078125 C-61.62109375 190.29078125 -61.62109375 190.29078125 -63.19921875 191.30078125 C-63.19921875 191.96078125 -63.19921875 192.62078125 -63.19921875 193.30078125 C-61.65170903 194.57340684 -61.65170903 194.57340684 -59.61328125 195.8046875 C-58.85192871 196.29332275 -58.09057617 196.78195801 -57.30615234 197.28540039 C-56.48711426 197.80610107 -55.66807617 198.32680176 -54.82421875 198.86328125 C-37.17912319 210.39304064 -24.87496419 223.8387453 -19.81689453 244.7557373 C-18.74870757 250.8864127 -18.77594603 257.01115772 -18.78852844 263.21471405 C-18.79307465 265.65448845 -18.77882137 268.09356321 -18.76013184 270.53326416 C-18.71749884 276.58340071 -18.70611047 282.63351644 -18.69390869 288.68377686 C-18.68234049 293.82113038 -18.65869113 298.9581579 -18.61921692 304.09537506 C-18.60574489 306.48615156 -18.60979689 308.87647407 -18.61462402 311.26727295 C-18.61620781 323.53807734 -18.61620781 323.53807734 -12.82421875 334.11328125 C-6.73174163 339.19034551 -2.35572352 340.40257931 5.47265625 340.4765625 C6.7771875 340.50041016 8.08171875 340.52425781 9.42578125 340.54882812 C11.48382978 340.58379734 13.54130111 340.61321912 15.59960938 340.62670898 C24.76886983 340.69841278 31.65247861 340.85813399 38.82421875 347.046875 C39.27023438 347.60503906 39.71625 348.16320312 40.17578125 348.73828125 C40.63726562 349.29386719 41.09875 349.84945313 41.57421875 350.421875 C45.27624138 356.09280775 45.64797381 361.70856418 44.80078125 368.30078125 C42.54350387 375.42531296 39.23661434 379.60613633 32.80078125 383.30078125 C28.98516672 384.57265276 25.37594036 384.48277502 21.3984375 384.50390625 C20.56549667 384.50960632 19.73255585 384.5153064 18.87437439 384.5211792 C17.10661079 384.53062923 15.33882958 384.53716319 13.57104492 384.54101562 C10.90445699 384.55063275 8.23866975 384.58161786 5.57226562 384.61328125 C-13.78410167 384.73671908 -29.88698799 380.10915169 -44.18774414 366.58007812 C-55.10660232 355.64434381 -62.39729016 340.2473978 -62.48632812 324.74243164 C-62.49657768 323.67971794 -62.49657768 323.67971794 -62.5070343 322.59553528 C-62.52051989 321.07223183 -62.52963846 319.54888445 -62.53474426 318.02552986 C-62.54311244 315.60690639 -62.56368881 313.18864643 -62.58728027 310.77012634 C-62.63525755 305.63456603 -62.66834383 300.49896915 -62.69921875 295.36328125 C-62.73503401 289.41028261 -62.77713714 283.45746393 -62.8351593 277.50463676 C-62.85505141 275.13563914 -62.86351051 272.76678354 -62.87145996 270.39772034 C-62.72785854 255.09527255 -62.72785854 255.09527255 -70.19921875 242.30078125 C-73.32087474 239.81380837 -76.62275038 237.68293201 -79.99609375 235.5546875 C-80.94429993 234.93988022 -81.8925061 234.32507294 -82.8694458 233.69163513 C-85.88814993 231.7362881 -88.91761554 229.79855755 -91.94921875 227.86328125 C-94.9652299 225.9296991 -97.97849594 223.9922051 -100.98614502 222.04563904 C-102.85204705 220.83879514 -104.72281091 219.63942093 -106.5993042 218.44911194 C-123.46502962 207.56949837 -123.46502962 207.56949837 -126.19921875 199.30078125 C-127.07102664 193.03829458 -127.41497569 186.4051941 -124.13671875 180.80078125 C-118.65208121 173.89915006 -111.42233994 169.31374083 -104.06640625 164.6171875 C-102.10646898 163.34747103 -100.14684283 162.0772742 -98.1875 160.80664062 C-95.12544318 158.82862174 -92.0609195 156.85476784 -88.99072266 154.8894043 C-86.00823218 152.97699496 -83.03677968 151.04834616 -80.06640625 149.1171875 C-79.15172577 148.53779922 -78.23704529 147.95841095 -77.29464722 147.36146545 C-70.78754837 143.10875696 -66.03449705 139.08242211 -63.90380859 131.40136719 C-62.75579206 125.02304981 -62.91900235 118.50175771 -62.92482376 112.04206085 C-62.92580086 109.64325189 -62.91270773 107.24487674 -62.89584351 104.84613037 C-62.84993469 98.03189421 -62.82499697 91.21770617 -62.81835938 84.40332031 C-62.81330169 80.21707834 -62.7888423 76.03129344 -62.75303268 71.84520721 C-62.74333578 70.26506056 -62.7408465 68.68485024 -62.74620438 67.10468292 C-62.80898863 47.67641938 -56.91718352 30.91728553 -43.08984375 16.9609375 C-31.11468788 5.94055757 -16.17583293 -0.01871377 0 0 Z " fill="#1464C0" transform="translate(190.19921875,63.69921875)"/>
<path d="M0 0 C0.83294083 -0.00570007 1.66588165 -0.01140015 2.52406311 -0.01727295 C4.29182671 -0.02672298 6.05960792 -0.03325694 7.82739258 -0.03710938 C10.49398051 -0.0467265 13.15976775 -0.07771161 15.82617188 -0.109375 C35.18253917 -0.23281283 51.28542549 4.39475456 65.58618164 17.92382812 C79.34224285 31.70115063 83.8689141 48.55762534 83.93318176 67.39891052 C83.94156625 69.77980992 83.96215593 72.16034291 83.98571777 74.5411377 C84.0417463 80.45058373 84.07722505 86.36011929 84.11334229 92.26971436 C84.14473975 97.27671469 84.18404582 102.28353545 84.2335968 107.29039001 C84.25347852 109.62171984 84.26194506 111.95290541 84.26989746 114.28430176 C84.14906239 129.49291654 84.14906239 129.49291654 91.59765625 142.203125 C94.71931224 144.69009788 98.02118788 146.82097424 101.39453125 148.94921875 C102.81684052 149.87142967 102.81684052 149.87142967 104.2678833 150.81227112 C107.28658743 152.76761815 110.31605304 154.7053487 113.34765625 156.640625 C116.3636674 158.57420715 119.37693344 160.51170115 122.38458252 162.45826721 C124.25048455 163.66511111 126.12124841 164.86448532 127.9977417 166.05479431 C144.86346712 176.93440788 144.86346712 176.93440788 147.59765625 185.203125 C148.46946414 191.46561167 148.81341319 198.09871215 145.53515625 203.703125 C140.04300587 210.61462369 132.78093089 215.22911096 125.4296875 219.95703125 C123.46538357 221.23615734 121.50119424 222.51545944 119.53710938 223.79492188 C116.46455841 225.78805435 113.39028946 227.77845547 110.3137207 229.76538086 C107.32682056 231.6971015 104.34671189 233.63896023 101.3671875 235.58203125 C100.44734573 236.1717421 99.52750397 236.76145294 98.57978821 237.36903381 C92.45849678 241.37032376 87.88096948 245.00190635 85.59765625 252.203125 C84.71134379 256.64458801 84.46350715 260.86984864 84.43994141 265.39501953 C84.43486069 266.08863083 84.42977997 266.78224213 84.42454529 267.49687195 C84.41389611 268.99457693 84.40525485 270.49229729 84.39842606 271.99002457 C84.38654161 274.37143211 84.36706307 276.75266595 84.3453064 279.13400269 C84.28402582 285.90210061 84.22982837 292.6701796 84.19628906 299.43847656 C84.17517747 303.58880023 84.13974444 307.73880375 84.09553146 311.88894272 C84.08150054 313.45874097 84.07267867 315.02859583 84.06947708 316.59845352 C84.02447698 336.55846449 78.77996156 353.30855401 64.453125 367.61328125 C52.39984556 378.54532539 37.58909575 384.52263717 21.3984375 384.50390625 C20.55975632 384.50819138 19.72107513 384.5124765 18.85697937 384.51689148 C17.09989316 384.52258996 15.34278338 384.52316849 13.58569336 384.51879883 C10.90633114 384.51562046 8.22805583 384.53921669 5.54882812 384.56445312 C3.83203263 384.56672485 2.11523419 384.5674302 0.3984375 384.56640625 C-0.39543869 384.575616 -1.18931488 384.58482574 -2.00724792 384.59431458 C-8.17997777 384.5431389 -12.20698009 383.03259471 -17.02734375 379.015625 C-22.10988133 372.99683049 -24.12246735 367.83697541 -23.78125 359.87890625 C-22.81185166 353.03315509 -19.50084226 348.76521889 -14.28125 344.4296875 C-9.81195978 341.51210511 -5.92213014 340.94979763 -0.6328125 340.89453125 C1.31915039 340.85682617 1.31915039 340.85682617 3.31054688 340.81835938 C5.35749076 340.78972908 7.40435854 340.76567839 9.45141602 340.74682617 C22.34891503 340.76574386 22.34891503 340.76574386 33.41015625 334.828125 C38.62491605 328.57041324 39.71760179 324.14770669 39.73950195 316.10229492 C39.74297638 315.39428741 39.74645081 314.68627991 39.75003052 313.95681763 C39.75737174 312.42088286 39.76272581 310.88493759 39.76632118 309.34898949 C39.77352497 306.90390492 39.78922554 304.45901664 39.80766296 302.01399231 C39.85991214 295.06217332 39.9079688 288.11045787 39.92358398 281.15844727 C39.93377322 276.90012979 39.96337785 272.64230228 40.00490379 268.38418007 C40.01707401 266.77499443 40.02236114 265.1657391 40.02010536 263.55650902 C39.99884799 243.42095042 44.93096473 225.80963164 59.49609375 211.0625 C66.04496238 204.80648421 73.75864627 199.88614345 81.47265625 195.203125 C83.01953125 194.213125 83.01953125 194.213125 84.59765625 193.203125 C84.59765625 192.543125 84.59765625 191.883125 84.59765625 191.203125 C83.05014653 189.93049941 83.05014653 189.93049941 81.01171875 188.69921875 C80.25036621 188.2105835 79.48901367 187.72194824 78.70458984 187.21850586 C77.88555176 186.69780518 77.06651367 186.17710449 76.22265625 185.640625 C58.57756069 174.11086561 46.27340169 160.66516095 41.21533203 139.74816895 C40.14714507 133.61749355 40.17438353 127.49274853 40.18696594 121.2891922 C40.19151215 118.8494178 40.17725887 116.41034304 40.15856934 113.97064209 C40.11593634 107.92050554 40.10454797 101.87038981 40.09234619 95.82012939 C40.08077799 90.68277587 40.05712863 85.54574835 40.01765442 80.40853119 C40.00418239 78.01775469 40.00823439 75.62743218 40.01306152 73.2366333 C40.01464531 60.96582891 40.01464531 60.96582891 34.22265625 50.390625 C28.13017913 45.31356074 23.75416102 44.10132694 15.92578125 44.02734375 C14.62125 44.00349609 13.31671875 43.97964844 11.97265625 43.95507812 C9.91460772 43.92010891 7.85713639 43.89068713 5.79882812 43.87719727 C-3.37043233 43.80549347 -10.25404111 43.64577226 -17.42578125 37.45703125 C-17.87179687 36.89886719 -18.3178125 36.34070313 -18.77734375 35.765625 C-19.23882812 35.21003906 -19.7003125 34.65445313 -20.17578125 34.08203125 C-23.87780388 28.4110985 -24.24953631 22.79534207 -23.40234375 16.203125 C-21.14506637 9.07859329 -17.83817684 4.89776992 -11.40234375 1.203125 C-7.58672922 -0.06874651 -3.97750286 0.02113123 0 0 Z " fill="#28B5F6" transform="translate(300.40234375,63.796875)"/>
</svg>
